<svg xmlns:dc="http://purl.org/dc/elements/1.1/" xmlns:cc="http://creativecommons.org/ns#" xmlns:rdf="http://www.w3.org/1999/02/22-rdf-syntax-ns#" xmlns:svg="http://www.w3.org/2000/svg" xmlns="http://www.w3.org/2000/svg" viewBox="0 0 563.88 173.58667" height="173.58667" width="563.88" xml:space="preserve" id="svg2" version="1.1" xmlns:xlink="http://www.w3.org/1999/xlink">
 <metadata id="metadata8">
  <rdf:RDF>
   <cc:Work rdf:about="">
    <dc:format>
     image/svg+xml
    </dc:format>
    <dc:type rdf:resource="http://purl.org/dc/dcmitype/StillImage">
    </dc:type>
   </cc:Work>
  </rdf:RDF>
 </metadata>
 <defs id="defs6">
 </defs>
 <g transform="matrix(1.3333333,0,0,-1.3333333,0,173.58667)" id="g10">
  <g transform="scale(0.1)" id="g12">
   <path id="path14" style="fill:#fefefe;fill-opacity:1;fill-rule:nonzero;stroke:none" d="m 3320.67,450.395 -22,-136.231 c -34.11,-18.453 -97.92,-45.004 -171.66,-45.004 -125.42,0 -150.74,66.942 -130.93,208.942 l 31.91,228.562 h -61.72 l 17.47,147.945 67.36,3.262 25.3,107.363 190.34,71.566 -24.2,-178.929 h 130.95 c -4.41,-18.469 -19.81,-120.039 -24.21,-151.207 H 3221.65 L 3193.03,495.41 c -7.7,-54.254 -3.29,-73.879 34.1,-73.879 27.52,0 68.24,16.16 93.54,28.864 z m -988.44,232.023 c 14.32,98.129 6.59,187 -102.31,187 -79.21,0 -165.05,-66.945 -225.57,-178.918 13.2,92.352 5.51,178.918 -102.32,178.918 -81.42,0 -169.45,-70.414 -229.96,-187 15.39,76.184 12.1,162.762 7.69,181.238 -62.71,-10.41 -117.72,-16.16 -194.74,-18.476 2.19,-53.106 -1.11,-122.364 -11.01,-188.153 L 1448.7,483.863 c -9.9,-68.097 -20.9,-146.621 -31.9,-196.242 h 204.66 c 1.09,30.012 8.79,77.344 14.3,118.91 l 17.6,118.879 c 14.3,77.36 75.92,168.539 123.23,168.539 27.52,0 26.41,-26.547 18.71,-76.191 l -19.81,-133.895 c -9.89,-68.097 -20.9,-146.621 -31.91,-196.242 h 206.86 c 1.1,30.012 7.7,77.344 13.2,118.91 l 17.61,118.879 c 14.3,77.36 75.92,168.539 123.22,168.539 27.53,0 26.41,-25.375 22.01,-60.023 L 2077.1,287.621 h 188.76 z m 1598.01,-61.82 c 0,-194.149 -137.13,-355.539 -318.84,-355.539 -162.75,0 -246.35,111.109 -246.35,256.132 0,192.957 138.23,354.368 318.83,354.368 164.97,0 246.36,-111.106 246.36,-254.961 z m -367.13,-95.594 c 0,-70.422 23.1,-106.211 62.72,-106.211 52.82,0 94.61,85.41 94.61,189.316 0,71.575 -23.1,106.204 -61.62,106.204 -52.81,0 -95.71,-84.27 -95.71,-189.309 z m -2156.22,91.574 c 0,-191.613 -135.34,-350.93 -314.68,-350.93 -160.647,0 -243.171,109.668 -243.171,252.805 0,190.465 136.441,349.766 314.691,349.766 162.85,0 243.16,-109.664 243.16,-251.641 z M 1047.1,525.004 c 0,-70.422 23.11,-106.211 62.71,-106.211 52.82,0 94.63,85.41 94.63,189.316 0,71.575 -23.11,106.204 -61.62,106.204 -52.81,0 -95.72,-84.27 -95.72,-189.309 z M 852.344,854.418 849.039,749.363 575.074,451.531 c 114.422,0 187.039,1.18 228.856,3.469 -12.102,-56.562 -22.004,-102.738 -31.903,-171.969 -55.015,4.59 -140.851,5.739 -226.664,5.739 -95.722,0 -179.347,-1.149 -246.472,-5.739 l 2.207,106.168 273.976,296.68 c -119.941,0 -163.945,-1.156 -213.469,-2.309 11.004,53.09 18.711,111.969 26.418,170.848 86.922,-3.465 121.024,-4.613 234.364,-4.613 104.523,0 163.933,1.148 229.957,4.613">
   </path>
   <path id="path16" style="fill:#fefefe;fill-opacity:1;fill-rule:nonzero;stroke:none" d="m 2539.73,280.059 c -97.74,-12.008 -162.13,26.777 -181.46,115.078 -12.15,55.547 4.67,118.765 34.15,156.551 39.41,49.351 103.73,81.078 182.12,90.691 63.13,7.75 116.3,3.914 166.03,-5.5 l 2.06,8.543 c 1.42,13.621 2.83,27.258 0.84,43.586 -5.13,41.801 -38.16,66.746 -119.62,56.746 -54.97,-6.75 -107.3,-26.633 -147.94,-49.234 l -39.46,119.398 c 55.01,31.602 124.42,55.645 203.83,65.395 151.7,18.625 258.25,-29.754 271.9,-140.938 3.63,-29.59 4.08,-60.957 0.33,-89.355 -19.5,-137.504 -31.99,-240.938 -37.44,-310.329 -0.85,-10.695 -0.77,-29.128 0.2,-55.332 l -188.23,0.172 c 3.99,10.879 7.58,25.528 10.79,43.942 2.09,12.129 3.6,27.457 4.58,45.961 -39.83,-54.579 -94.47,-87.004 -162.68,-95.375 z m 59.03,105.554 c 69.23,8.504 116.91,75.309 128.37,141.942 l 1.93,17.851 c -29.76,6.692 -72.76,11.762 -114.49,6.637 -39.71,-4.887 -72.82,-21.367 -90.56,-45.293 -13.39,-17.16 -20.18,-37.672 -17.18,-62.141 4.52,-36.726 45.1,-64.742 91.93,-58.996">
   </path>
  </g>
 </g>
</svg>